<mxfile host="Electron" modified="2024-11-11T10:33:26.898Z" agent="Mozilla/5.0 (Macintosh; Intel Mac OS X 10_15_7) AppleWebKit/537.36 (KHTML, like Gecko) draw.io/23.1.5 Chrome/120.0.6099.109 Electron/28.1.0 Safari/537.36" etag="lDYBBwEXEB5Z4LJWkOq8" version="23.1.5" type="device">
  <diagram name="第 1 页" id="tIyV5zOq1BOgrSz6vJ1L">
    <mxGraphModel dx="1434" dy="780" grid="1" gridSize="10" guides="1" tooltips="1" connect="1" arrows="1" fold="1" page="1" pageScale="1" pageWidth="827" pageHeight="1169" math="0" shadow="0">
      <root>
        <mxCell id="0" />
        <mxCell id="1" parent="0" />
        <mxCell id="7B5ZLvaZeXTg56ZUfSf0-1" value="0B" style="rounded=0;whiteSpace=wrap;html=1;" vertex="1" parent="1">
          <mxGeometry x="110" y="260" width="60" height="60" as="geometry" />
        </mxCell>
        <mxCell id="7B5ZLvaZeXTg56ZUfSf0-8" style="edgeStyle=orthogonalEdgeStyle;rounded=0;orthogonalLoop=1;jettySize=auto;html=1;exitX=1;exitY=0.5;exitDx=0;exitDy=0;entryX=0;entryY=0.5;entryDx=0;entryDy=0;" edge="1" parent="1" source="7B5ZLvaZeXTg56ZUfSf0-2" target="7B5ZLvaZeXTg56ZUfSf0-7">
          <mxGeometry relative="1" as="geometry" />
        </mxCell>
        <mxCell id="7B5ZLvaZeXTg56ZUfSf0-2" value="16B" style="rounded=0;whiteSpace=wrap;html=1;" vertex="1" parent="1">
          <mxGeometry x="110" y="320" width="60" height="60" as="geometry" />
        </mxCell>
        <mxCell id="7B5ZLvaZeXTg56ZUfSf0-3" value="32B" style="rounded=0;whiteSpace=wrap;html=1;" vertex="1" parent="1">
          <mxGeometry x="110" y="380" width="60" height="60" as="geometry" />
        </mxCell>
        <mxCell id="7B5ZLvaZeXTg56ZUfSf0-4" value="48B" style="rounded=0;whiteSpace=wrap;html=1;" vertex="1" parent="1">
          <mxGeometry x="110" y="440" width="60" height="60" as="geometry" />
        </mxCell>
        <mxCell id="7B5ZLvaZeXTg56ZUfSf0-5" value="......" style="rounded=0;whiteSpace=wrap;html=1;" vertex="1" parent="1">
          <mxGeometry x="110" y="500" width="60" height="60" as="geometry" />
        </mxCell>
        <mxCell id="7B5ZLvaZeXTg56ZUfSf0-6" value="496B" style="rounded=0;whiteSpace=wrap;html=1;" vertex="1" parent="1">
          <mxGeometry x="110" y="560" width="60" height="60" as="geometry" />
        </mxCell>
        <mxCell id="7B5ZLvaZeXTg56ZUfSf0-36" style="edgeStyle=orthogonalEdgeStyle;rounded=0;orthogonalLoop=1;jettySize=auto;html=1;exitX=1;exitY=0.25;exitDx=0;exitDy=0;entryX=0;entryY=0.75;entryDx=0;entryDy=0;" edge="1" parent="1" source="7B5ZLvaZeXTg56ZUfSf0-7" target="7B5ZLvaZeXTg56ZUfSf0-29">
          <mxGeometry relative="1" as="geometry" />
        </mxCell>
        <mxCell id="7B5ZLvaZeXTg56ZUfSf0-7" value="" style="rounded=0;whiteSpace=wrap;html=1;" vertex="1" parent="1">
          <mxGeometry x="300" y="305" width="270" height="90" as="geometry" />
        </mxCell>
        <mxCell id="7B5ZLvaZeXTg56ZUfSf0-16" style="edgeStyle=orthogonalEdgeStyle;rounded=0;orthogonalLoop=1;jettySize=auto;html=1;exitX=0.5;exitY=0;exitDx=0;exitDy=0;" edge="1" parent="1" source="7B5ZLvaZeXTg56ZUfSf0-9" target="7B5ZLvaZeXTg56ZUfSf0-15">
          <mxGeometry relative="1" as="geometry" />
        </mxCell>
        <mxCell id="7B5ZLvaZeXTg56ZUfSf0-38" style="edgeStyle=orthogonalEdgeStyle;rounded=0;orthogonalLoop=1;jettySize=auto;html=1;exitX=0;exitY=0.5;exitDx=0;exitDy=0;entryX=1;entryY=0.25;entryDx=0;entryDy=0;" edge="1" parent="1" source="7B5ZLvaZeXTg56ZUfSf0-9" target="7B5ZLvaZeXTg56ZUfSf0-2">
          <mxGeometry relative="1" as="geometry" />
        </mxCell>
        <mxCell id="7B5ZLvaZeXTg56ZUfSf0-9" value="16B" style="rounded=0;whiteSpace=wrap;html=1;fillColor=#dae8fc;strokeColor=#6c8ebf;" vertex="1" parent="1">
          <mxGeometry x="300" y="305" width="50" height="30" as="geometry" />
        </mxCell>
        <mxCell id="7B5ZLvaZeXTg56ZUfSf0-10" value="16B" style="rounded=0;whiteSpace=wrap;html=1;fillColor=#ffe6cc;strokeColor=#d79b00;" vertex="1" parent="1">
          <mxGeometry x="350" y="305" width="50" height="30" as="geometry" />
        </mxCell>
        <mxCell id="7B5ZLvaZeXTg56ZUfSf0-11" value="16B" style="rounded=0;whiteSpace=wrap;html=1;fillColor=#ffe6cc;strokeColor=#d79b00;" vertex="1" parent="1">
          <mxGeometry x="400" y="305" width="50" height="30" as="geometry" />
        </mxCell>
        <mxCell id="7B5ZLvaZeXTg56ZUfSf0-12" value="16B" style="rounded=0;whiteSpace=wrap;html=1;fillColor=#ffe6cc;strokeColor=#d79b00;" vertex="1" parent="1">
          <mxGeometry x="520" y="365" width="50" height="30" as="geometry" />
        </mxCell>
        <mxCell id="7B5ZLvaZeXTg56ZUfSf0-13" value="......" style="rounded=0;whiteSpace=wrap;html=1;fillColor=#ffe6cc;strokeColor=#d79b00;" vertex="1" parent="1">
          <mxGeometry x="450" y="305" width="50" height="30" as="geometry" />
        </mxCell>
        <mxCell id="7B5ZLvaZeXTg56ZUfSf0-14" value="一共512个，一共8K，PoolSubpage" style="text;html=1;align=center;verticalAlign=middle;whiteSpace=wrap;rounded=0;fillColor=#f8cecc;strokeColor=#b85450;" vertex="1" parent="1">
          <mxGeometry x="330" y="350" width="180" height="30" as="geometry" />
        </mxCell>
        <mxCell id="7B5ZLvaZeXTg56ZUfSf0-15" value="第一个分出去" style="text;html=1;align=center;verticalAlign=middle;whiteSpace=wrap;rounded=0;fillColor=#fff2cc;strokeColor=#d6b656;" vertex="1" parent="1">
          <mxGeometry x="330" y="240" width="60" height="30" as="geometry" />
        </mxCell>
        <mxCell id="7B5ZLvaZeXTg56ZUfSf0-37" style="edgeStyle=orthogonalEdgeStyle;rounded=0;orthogonalLoop=1;jettySize=auto;html=1;exitX=0;exitY=0.5;exitDx=0;exitDy=0;entryX=1;entryY=0.5;entryDx=0;entryDy=0;" edge="1" parent="1" source="7B5ZLvaZeXTg56ZUfSf0-27" target="7B5ZLvaZeXTg56ZUfSf0-7">
          <mxGeometry relative="1" as="geometry" />
        </mxCell>
        <mxCell id="7B5ZLvaZeXTg56ZUfSf0-27" value="" style="rounded=0;whiteSpace=wrap;html=1;" vertex="1" parent="1">
          <mxGeometry x="610" y="305" width="270" height="90" as="geometry" />
        </mxCell>
        <mxCell id="7B5ZLvaZeXTg56ZUfSf0-28" style="edgeStyle=orthogonalEdgeStyle;rounded=0;orthogonalLoop=1;jettySize=auto;html=1;exitX=0.5;exitY=0;exitDx=0;exitDy=0;" edge="1" parent="1" source="7B5ZLvaZeXTg56ZUfSf0-29" target="7B5ZLvaZeXTg56ZUfSf0-35">
          <mxGeometry relative="1" as="geometry" />
        </mxCell>
        <mxCell id="7B5ZLvaZeXTg56ZUfSf0-29" value="16B" style="rounded=0;whiteSpace=wrap;html=1;fillColor=#dae8fc;strokeColor=#6c8ebf;" vertex="1" parent="1">
          <mxGeometry x="610" y="305" width="50" height="30" as="geometry" />
        </mxCell>
        <mxCell id="7B5ZLvaZeXTg56ZUfSf0-30" value="16B" style="rounded=0;whiteSpace=wrap;html=1;fillColor=#ffe6cc;strokeColor=#d79b00;" vertex="1" parent="1">
          <mxGeometry x="660" y="305" width="50" height="30" as="geometry" />
        </mxCell>
        <mxCell id="7B5ZLvaZeXTg56ZUfSf0-31" value="16B" style="rounded=0;whiteSpace=wrap;html=1;fillColor=#ffe6cc;strokeColor=#d79b00;" vertex="1" parent="1">
          <mxGeometry x="710" y="305" width="50" height="30" as="geometry" />
        </mxCell>
        <mxCell id="7B5ZLvaZeXTg56ZUfSf0-32" value="16B" style="rounded=0;whiteSpace=wrap;html=1;fillColor=#ffe6cc;strokeColor=#d79b00;" vertex="1" parent="1">
          <mxGeometry x="830" y="365" width="50" height="30" as="geometry" />
        </mxCell>
        <mxCell id="7B5ZLvaZeXTg56ZUfSf0-33" value="......" style="rounded=0;whiteSpace=wrap;html=1;fillColor=#ffe6cc;strokeColor=#d79b00;" vertex="1" parent="1">
          <mxGeometry x="760" y="305" width="50" height="30" as="geometry" />
        </mxCell>
        <mxCell id="7B5ZLvaZeXTg56ZUfSf0-34" value="一共512个，一共8K，PoolSubpage" style="text;html=1;align=center;verticalAlign=middle;whiteSpace=wrap;rounded=0;fillColor=#f8cecc;strokeColor=#b85450;" vertex="1" parent="1">
          <mxGeometry x="640" y="350" width="120" height="30" as="geometry" />
        </mxCell>
        <mxCell id="7B5ZLvaZeXTg56ZUfSf0-35" value="第一个分出去" style="text;html=1;align=center;verticalAlign=middle;whiteSpace=wrap;rounded=0;fillColor=#fff2cc;strokeColor=#d6b656;" vertex="1" parent="1">
          <mxGeometry x="640" y="240" width="60" height="30" as="geometry" />
        </mxCell>
        <mxCell id="7B5ZLvaZeXTg56ZUfSf0-39" value="512B" style="rounded=0;whiteSpace=wrap;html=1;" vertex="1" parent="1">
          <mxGeometry x="340" y="440" width="60" height="60" as="geometry" />
        </mxCell>
        <mxCell id="7B5ZLvaZeXTg56ZUfSf0-40" value="1K" style="rounded=0;whiteSpace=wrap;html=1;" vertex="1" parent="1">
          <mxGeometry x="340" y="500" width="60" height="60" as="geometry" />
        </mxCell>
        <mxCell id="7B5ZLvaZeXTg56ZUfSf0-41" value="2K" style="rounded=0;whiteSpace=wrap;html=1;" vertex="1" parent="1">
          <mxGeometry x="340" y="560" width="60" height="60" as="geometry" />
        </mxCell>
        <mxCell id="7B5ZLvaZeXTg56ZUfSf0-42" value="4K" style="rounded=0;whiteSpace=wrap;html=1;" vertex="1" parent="1">
          <mxGeometry x="340" y="620" width="60" height="60" as="geometry" />
        </mxCell>
      </root>
    </mxGraphModel>
  </diagram>
</mxfile>
